<svg width="24" height="24" viewBox="0 0 24 24" fill="none" xmlns="http://www.w3.org/2000/svg">
<path d="M5.3 13.734C4.974 13.734 4.652 13.7 4.342 13.636C2.522 13.252 1.25 11.854 1.25 10.234C1.25 9.80202 1.34 9.38202 1.516 8.98402C1.52 8.97602 1.524 8.96802 1.526 8.96202L3.574 4.37202C3.582 4.35402 3.59 4.33602 3.6 4.32002C4.214 3.00002 5.542 2.15002 7.002 2.15002H17.002C18.47 2.15002 19.806 3.01202 20.414 4.34602C20.428 4.37602 20.442 4.40602 20.456 4.43802L22.48 8.96002C22.66 9.36802 22.752 9.79202 22.752 10.226C22.752 11.848 21.48 13.246 19.658 13.628C18.946 13.778 18.154 13.754 17.444 13.554C16.608 13.318 15.894 12.856 15.398 12.252C14.586 13.12 13.34 13.656 12.002 13.656C10.664 13.656 9.426 13.122 8.612 12.256C8.116 12.862 7.398 13.326 6.554 13.564C6.152 13.676 5.732 13.734 5.304 13.734H5.3ZM2.9 9.56202C2.9 9.56202 2.892 9.58002 2.89 9.58602C2.798 9.79202 2.75 10.012 2.75 10.234C2.75 11.136 3.532 11.932 4.65 12.168C5.13 12.268 5.668 12.254 6.144 12.12C6.93 11.9 7.55 11.372 7.762 10.744C7.782 10.688 7.796 10.638 7.808 10.582C7.882 10.25 8.17 10.01 8.51 9.99602C8.854 9.98402 9.156 10.2 9.256 10.524C9.264 10.55 9.274 10.574 9.284 10.6L9.296 10.628C9.698 11.544 10.782 12.158 11.998 12.158C13.214 12.158 14.304 11.54 14.702 10.62C14.722 10.574 14.736 10.536 14.75 10.5C14.86 10.182 15.166 9.97602 15.502 9.99402C15.838 10.012 16.12 10.252 16.192 10.58C16.206 10.642 16.22 10.692 16.236 10.738C16.458 11.376 17.06 11.888 17.85 12.112C18.328 12.246 18.868 12.262 19.346 12.162C20.468 11.928 21.25 11.132 21.25 10.228C21.25 10.004 21.202 9.78402 21.108 9.57202L19.08 5.04002C19.08 5.04002 19.074 5.02802 19.072 5.02002C19.066 5.00802 19.06 4.99602 19.054 4.98402C18.692 4.17402 17.886 3.65202 17 3.65202H7C6.114 3.65202 5.306 4.17602 4.944 4.98602C4.936 5.00202 4.93 5.01802 4.922 5.03202L2.9 9.56402V9.56202Z" fill="white" fill-opacity="0.3"/>
<path d="M12 21.85C7.92397 21.85 4.44597 19.2 4.08197 15.82V15.802L4.07397 15.768V15.7C4.07397 15.286 4.40997 14.95 4.82397 14.95C5.20197 14.95 5.52197 15.232 5.56797 15.606L5.57197 15.646C5.84597 18.286 8.66797 20.348 12 20.348C15.332 20.348 18.154 18.282 18.428 15.644V15.614C18.478 15.234 18.798 14.948 19.176 14.948C19.59 14.948 19.926 15.284 19.926 15.698C19.926 15.714 19.926 15.728 19.926 15.74L19.922 15.786L19.918 15.798V15.818C19.562 19.198 16.084 21.846 12.002 21.846L12 21.85Z" fill="white" fill-opacity="0.3"/>
</svg>
